<svg version="1.0" xmlns="http://www.w3.org/2000/svg"
 width="35.93" height="32" viewBox="0 0 120 100"
 preserveAspectRatio="xMidYMid meet" aria-hidden="true">

<g transform="translate(0.000000,120.000000) scale(0.100000,-0.100000)"
fill="#00D8FF" stroke="none">
<path d="M406 1074 c-24 -23 -24 -425 0 -448 12 -12 38 -16 115 -16 l99 0 0
-30 c0 -23 -4 -30 -20 -30 -11 0 -20 -4 -20 -10 0 -6 53 -10 140 -10 87 0 140
4 140 10 0 6 -9 10 -20 10 -16 0 -20 7 -20 30 l0 30 99 0 c77 0 103 4 115 16
24 23 24 425 0 448 -13 14 -56 16 -314 16 -258 0 -301 -2 -314 -16z m612 -12
c9 -7 12 -57 10 -218 l-3 -209 -305 0 -305 0 -3 209 c-2 161 1 211 10 218 7 4
141 8 298 8 157 0 291 -4 298 -8z m-325 -472 c9 -11 21 -20 27 -20 6 0 18 9
27 20 21 24 39 26 47 4 15 -40 9 -44 -74 -44 -83 0 -89 4 -74 44 8 22 26 20
47 -4z m39 8 c-9 -9 -15 -9 -24 0 -9 9 -7 12 12 12 19 0 21 -3 12 -12z"/>
<path d="M437 1044 c-11 -11 -8 -382 3 -389 5 -3 18 -1 28 4 12 7 22 7 29 0 6
-6 107 -8 259 -7 l249 3 0 195 c0 159 -3 195 -14 195 -11 0 -13 -31 -12 -172
l2 -173 -176 0 c-135 0 -184 4 -212 15 -85 36 -113 89 -113 215 l0 90 236 0
c184 0 235 3 232 13 -4 9 -65 13 -254 15 -138 1 -253 -1 -257 -4z"/>
<path d="M565 980 c-4 -6 2 -18 13 -28 27 -23 52 -117 46 -167 -7 -50 12 -81
44 -71 12 4 22 14 22 22 0 23 72 19 88 -6 16 -25 38 -26 52 -1 24 46 16 51
-86 51 -111 0 -118 15 -12 25 40 4 81 11 90 16 14 8 32 69 33 114 0 6 -49 12
-116 15 -92 4 -121 9 -136 23 -23 20 -29 21 -38 7z m98 -71 c4 -15 1 -19 -11
-17 -21 4 -29 38 -9 38 8 0 17 -9 20 -21z m57 1 c0 -11 -6 -20 -14 -20 -7 0
-16 9 -19 20 -4 15 0 20 14 20 12 0 19 -7 19 -20z m44 14 c18 -7 10 -34 -10
-34 -8 0 -14 9 -14 20 0 22 1 23 24 14z m64 -16 c-6 -18 -28 -21 -28 -4 0 9 7
16 16 16 9 0 14 -5 12 -12z m-158 -64 c0 -28 -15 -25 -23 6 -3 13 0 20 9 20 8
0 14 -10 14 -26z m50 6 c0 -11 -4 -20 -10 -20 -5 0 -10 2 -10 4 0 2 -3 11 -6
20 -4 11 -1 16 10 16 9 0 16 -8 16 -20z m50 0 c0 -11 -7 -20 -15 -20 -8 0 -15
9 -15 20 0 11 7 20 15 20 8 0 15 -9 15 -20z m48 8 c-6 -18 -28 -21 -28 -4 0 9
7 16 16 16 9 0 14 -5 12 -12z"/>
<path d="M278 340 c5 -91 22 -91 22 0 0 49 -4 70 -12 70 -10 0 -12 -19 -10
-70z"/>
<path d="M798 340 c5 -91 22 -91 22 0 0 49 -4 70 -12 70 -10 0 -12 -19 -10
-70z"/>
<path d="M1070 340 c0 -40 4 -70 10 -70 6 0 10 30 10 70 0 40 -4 70 -10 70 -6
0 -10 -30 -10 -70z"/>
<path d="M1140 399 c0 -5 5 -7 10 -4 6 3 10 8 10 11 0 2 -4 4 -10 4 -5 0 -10
-5 -10 -11z"/>
<path d="M167 393 c-17 -16 -4 -45 28 -64 22 -14 35 -29 35 -42 1 -20 1 -21
11 -4 13 22 -1 41 -44 63 -21 11 -28 21 -24 35 5 20 4 23 -6 12z"/>
<path d="M346 359 c4 -8 11 -32 15 -54 7 -39 7 -39 6 9 -1 32 -7 51 -16 54
-10 3 -11 0 -5 -9z"/>
<path d="M485 353 c12 -12 15 -26 11 -51 -4 -26 -2 -32 6 -24 23 23 5 92 -24
92 -5 0 -2 -8 7 -17z"/>
<path d="M557 363 c-11 -10 -8 -143 3 -143 6 0 10 32 10 75 0 75 -1 81 -13 68z"/>
<path d="M620 351 c6 -13 9 -37 6 -53 -5 -26 -4 -29 9 -18 22 18 18 54 -6 76
-22 19 -22 19 -9 -5z"/>
<path d="M685 359 c-4 -6 -5 -12 -2 -15 2 -3 7 2 10 11 7 17 1 20 -8 4z"/>
<path d="M727 362 c6 -4 13 -27 15 -51 2 -25 8 -46 13 -48 13 -4 7 77 -7 95
-6 6 -16 12 -22 12 -8 0 -7 -3 1 -8z"/>
<path d="M867 359 c6 -8 13 -32 16 -54 4 -34 4 -32 3 9 -1 34 -6 51 -16 54
-12 4 -13 2 -3 -9z"/>
<path d="M948 359 c-34 -19 -11 -100 28 -99 5 0 1 5 -8 11 -21 12 -24 69 -6
87 15 15 9 15 -14 1z"/>
<path d="M1005 353 c11 -11 15 -28 13 -51 -4 -30 -3 -32 9 -16 7 10 13 23 13
29 0 16 -29 55 -41 55 -6 0 -3 -7 6 -17z"/>
<path d="M1140 320 c0 -27 5 -50 10 -50 6 0 10 23 10 50 0 28 -4 50 -10 50 -5
0 -10 -22 -10 -50z"/>
<path d="M1206 348 c-9 -12 -16 -28 -16 -35 0 -15 36 -53 50 -53 6 0 1 9 -10
20 -22 22 -25 42 -10 71 14 26 5 24 -14 -3z"/>
<path d="M417 353 c-13 -12 -7 -62 9 -77 22 -23 25 -20 9 11 -8 15 -12 38 -9
50 6 23 3 29 -9 16z"/>
<path d="M674 299 c-3 -6 0 -17 7 -25 12 -11 14 -9 14 11 0 26 -9 32 -21 14z"/>
</g>
</svg>
